<?xml version="1.0" standalone="no"?>
<!DOCTYPE svg PUBLIC "-//W3C//DTD SVG 20010904//EN"
 "http://www.w3.org/TR/2001/REC-SVG-20010904/DTD/svg10.dtd">
<svg version="1.0" xmlns="http://www.w3.org/2000/svg"
 width="512.000000pt" height="512.000000pt" viewBox="0 0 512.000000 512.000000"
 preserveAspectRatio="xMidYMid meet">
<metadata>
Created by potrace 1.11, written by Peter Selinger 2001-2013
</metadata>
<g transform="translate(0.000000,512.000000) scale(0.100000,-0.100000)"
fill="#000000" stroke="none">
<path d="M2371 4505 c-326 -74 -575 -329 -637 -652 -26 -139 -14 -262 43 -413
63 -169 245 -484 431 -750 100 -142 304 -411 326 -429 31 -26 443 552 630 881
161 284 216 470 195 654 -36 323 -264 594 -584 693 -92 29 -309 38 -404 16z
m322 -345 c111 -42 202 -136 247 -258 18 -47 21 -73 18 -152 -5 -120 -39 -200
-118 -280 -208 -207 -557 -145 -680 121 -113 245 30 532 295 589 62 14 174 4
238 -20z"/>
</g>
</svg>
