<svg id="Layer_1" data-name="Layer 1" xmlns="http://www.w3.org/2000/svg" viewBox="0 0 429.19 429.19"><defs><style>.cls-1{fill:#fff;}</style></defs><title>markericon</title><path class="cls-1" d="M262.81,47.57c-101.95,0-184.6,82.65-184.6,184.6s82.65,184.6,184.6,184.6S447.4,334.12,447.4,232.17,364.76,47.57,262.81,47.57Zm1.87,341.81A157.45,157.45,0,1,1,422.13,231.94,157.45,157.45,0,0,1,264.68,389.38Z" transform="translate(-48.84 -18.01)"/><ellipse class="cls-1" cx="214.41" cy="212.16" rx="71.55" ry="70.77"/><path class="cls-1" d="M275.23,103.13l-1.32.89a24.5,24.5,0,0,1-26.8,0l-.6-.41c-6.95-4.72-11-11.86-11-19.4V41.85c0-7.68,4.13-14.94,11.23-19.74l.28-.19a24.27,24.27,0,0,1,26-.26l.56.36c7.52,4.84,11.93,12.36,11.93,20.35V85C285.51,92,281.73,98.71,275.23,103.13Z" transform="translate(-48.84 -18.01)"/><path class="cls-1" d="M282.4,442.32l-1.32.89a24.5,24.5,0,0,1-26.8,0l-.6-.4c-7-4.73-11-11.87-11-19.41V381c0-7.68,4.13-14.94,11.23-19.74l.28-.19a24.27,24.27,0,0,1,26-.26l.56.36c7.52,4.84,11.93,12.37,11.93,20.35v42.62C292.68,431.23,288.9,437.9,282.4,442.32Z" transform="translate(-48.84 -18.01)"/><path class="cls-1" d="M392.92,243.12l-.9-1.31A24.51,24.51,0,0,1,392,215l.41-.6c4.73-7,11.86-11,19.4-11h42.36c7.68,0,14.95,4.14,19.74,11.24l.19.28a24.23,24.23,0,0,1,.26,26l-.36.56c-4.84,7.52-12.36,11.93-20.34,11.93H411.05C404,253.4,397.34,249.62,392.92,243.12Z" transform="translate(-48.84 -18.01)"/><path class="cls-1" d="M53.72,250.29,52.83,249a24.51,24.51,0,0,1,0-26.81l.41-.6c4.72-6.95,11.86-11,19.4-11H115c7.68,0,14.94,4.14,19.74,11.24l.19.28a24.23,24.23,0,0,1,.26,26l-.36.56c-4.84,7.52-12.36,11.93-20.35,11.93H71.86C64.81,260.57,58.14,256.79,53.72,250.29Z" transform="translate(-48.84 -18.01)"/></svg>